<svg width="128" height="191" viewBox="0 0 128 191" fill="none" xmlns="http://www.w3.org/2000/svg">
<path d="M63.6332 0C55.2768 0 47.0022 1.64137 39.2818 4.8304C31.5615 8.01942 24.5466 12.6936 18.6377 18.5862C6.7042 30.4867 0 46.6273 0 63.4573C0 98.5039 63.6332 190.978 63.6332 190.978C63.6332 190.978 127.266 98.5081 127.266 63.4573C127.266 46.6273 120.562 30.4867 108.629 18.5862C96.6952 6.68566 80.5098 0 63.6332 0V0ZM63.6332 90.4912C57.7169 90.4912 51.9334 88.7416 47.0143 85.4635C42.0951 82.1855 38.2613 77.5264 35.9976 72.0754C33.7339 66.6243 33.142 60.6263 34.2969 54.8398C35.4517 49.0533 38.3013 43.7383 42.4854 39.567C46.6695 35.3956 52 32.5554 57.8029 31.4053C63.6057 30.2553 69.6203 30.8472 75.0858 33.1062C80.5513 35.3652 85.2223 39.1897 88.508 44.0962C91.7937 49.0027 93.5466 54.7706 93.545 60.6706C93.5427 68.5803 90.3903 76.1653 84.781 81.7575C79.1717 87.3497 71.5649 90.4912 63.6332 90.4912V90.4912Z" fill="#22B573"/>
</svg>
